<svg width="36" height="36" viewBox="0 0 36 36" fill="none" xmlns="http://www.w3.org/2000/svg">
<rect x="0.5" y="0.5" width="35" height="35" rx="3.5" fill="#F5F6F8"/>
<rect x="0.5" y="0.5" width="35" height="35" rx="3.5" stroke="#DDDDDD"/>
<circle cx="18" cy="13" r="4.5" stroke="black"/>
<path d="M26 26.5C26.2761 26.5 26.5 26.2761 26.5 26C26.5 25.7239 26.2761 25.5 26 25.5V26.5ZM26 25.5H10.381V26.5H26V25.5ZM17.619 18.5H18V17.5H17.619V18.5ZM10.381 25.5C10.4467 25.5 10.5 25.5533 10.5 25.619H9.5C9.5 26.1056 9.89442 26.5 10.381 26.5V25.5ZM10.5 25.619C10.5 21.6873 13.6873 18.5 17.619 18.5V17.5C13.135 17.5 9.5 21.135 9.5 25.619H10.5Z" fill="black"/>
</svg>
